<?xml version="1.0" standalone="no"?><!DOCTYPE svg PUBLIC "-//W3C//DTD SVG 1.1//EN" 	"http://www.w3.org/Graphics/SVG/1.1/DTD/svg11.dtd"><svg width="686" height="611" version="1.1"	xmlns="http://www.w3.org/2000/svg"><title>Krona (snapshot) - all</title><defs>	<style type="text/css">	text {font-size: 12px; font-family: sans-serif; dominant-baseline:central}	path {stroke-width:0.3;}	path.wedge {stroke:none}	path.line {fill:none;stroke:black;}	line {stroke:black;stroke-width:0.3;}	line.tick {stroke-width:0.6;}	line.pattern {stroke-width:0.19999999999999998;}	circle {fill:none;stroke:black;stroke-width:0.3;}	rect {stroke:black;stroke-width:0.3;}	.highlight {stroke:black;stroke-width:1.5;}	.searchHighlight {fill:rgb(255, 255, 100);stroke:none;}	</style><pattern id="hiddenPattern" patternUnits="userSpaceOnUse" x="0" y="0" width="7.199999999999999" height="7.199999999999999"><line class="pattern" x1="0" y1="0" x2="3.5999999999999996" y2="3.5999999999999996"/><line class="pattern" x1="3.5999999999999996" y1="7.199999999999999" x2="7.199999999999999" y2="3.5999999999999996"/></pattern></defs><path class="wedge" fill="rgb(208,114,114)" d=" M 268,359.1 L 268,519.9 A 214.4,214.4 0 1,1 402.2144170263041,472.69404972154166 L 301.553604256576,347.2985124303854 A 53.6,53.6 0 1 0 268,359.1 Z "/><path class="wedge" fill="rgb(208,114,114)" d=" M 268,359.1 L 268,519.9 A 214.4,214.4 0 1,1 402.2144170263041,472.69404972154166 L 301.553604256576,347.2985124303854 A 53.6,53.6 0 1 0 268,359.1 Z "/><path class="wedge" fill="rgb(212,127,127)" d=" M 268,395.0232077928748 L 268,519.9 A 214.4,214.4 0 1,1 360.5275558176949,112.0936624244093 L 306.63509144605564,224.74274371623835 A 89.52320779287481,89.52320779287481 0 1 0 268,395.0232077928748 Z "/><path class="wedge" fill="rgb(216,140,140)" d=" M 268,424.4741542107995 L 268,519.9 A 214.4,214.4 0 1,1 329.1726095330005,100.01211266129806 L 301.945706530113,191.47132650799384 A 118.97415421079953,118.97415421079953 0 1 0 268,424.4741542107995 Z "/><path class="wedge" fill="rgb(221,153,153)" d=" M 268,449.0537172917757 L 268,519.9 A 214.4,214.4 0 0,1 151.4337186041728,125.55650319739578 L 189.95185165461683,185.01698755366328 A 143.5537172917757,143.5537172917757 0 0 0 268,449.0537172917757 Z "/><path class="wedge" fill="rgb(225,165,165)" d=" M 268,469.8760057220572 L 268,519.9 A 214.4,214.4 0 0,1 127.22884578447088,143.7877798655039 L 160.0736937927593,181.51861556830923 A 164.3760057220572,164.3760057220572 0 0 0 268,469.8760057220572 Z "/><path class="wedge" fill="rgb(225,178,165)" d=" M 160.0736937927593,181.51861556830923 L 127.22884578447088,143.7877798655039 A 214.4,214.4 0 0,1 144.12970299644513,130.50425856538365 L 173.0312283160016,171.33441699910384 A 164.3760057220572,164.3760057220572 0 0 0 160.0736937927593,181.51861556830923 Z "/><path class="wedge" fill="rgb(225,178,165)" d=" M 173.0312283160016,171.33441699910384 L 144.12970299644513,130.50425856538365 A 214.4,214.4 0 0,1 151.4337186041728,125.55650319739578 L 178.63106465615942,167.54107621235144 A 164.3760057220572,164.3760057220572 0 0 0 173.0312283160016,171.33441699910384 Z "/><path class="wedge" fill="url(#hiddenPattern)" d=" M 173.0312283160016,171.33441699910384 L 144.12970299644513,130.50425856538365 A 214.4,214.4 0 0,1 151.4337186041728,125.55650319739578 L 178.63106465615942,167.54107621235144 A 164.3760057220572,164.3760057220572 0 0 0 173.0312283160016,171.33441699910384 Z "/><path class="wedge" fill="rgb(221,168,153)" d=" M 189.95185165461683,185.01698755366328 L 151.4337186041728,125.55650319739578 A 214.4,214.4 0 0,1 302.3154192597281,93.863963368643 L 290.9762406490661,163.79692270835022 A 143.5537172917757,143.5537172917757 0 0 0 189.95185165461683,185.01698755366328 Z "/><path class="wedge" fill="rgb(225,178,165)" d=" M 178.63106465615942,167.54107621235144 L 151.4337186041728,125.55650319739578 A 214.4,214.4 0 0,1 216.93786309625173,97.26931500179214 L 228.85172524313904,145.8538793434081 A 164.3760057220572,164.3760057220572 0 0 0 178.63106465615942,167.54107621235144 Z "/><path class="wedge" fill="rgb(225,180,165)" d=" M 228.85172524313904,145.8538793434081 L 216.93786309625173,97.26931500179214 A 214.4,214.4 0 0,1 246.25642316470615,92.20542232300497 L 251.32965340346897,141.9714985041161 A 164.3760057220572,164.3760057220572 0 0 0 228.85172524313904,145.8538793434081 Z "/><path class="wedge" fill="rgb(225,181,165)" d=" M 251.32965340346897,141.9714985041161 L 246.25642316470615,92.20542232300497 A 214.4,214.4 0 0,1 269.92993801865043,91.10868641839949 L 269.47964320334376,141.1306539736543 A 164.3760057220572,164.3760057220572 0 0 0 251.32965340346897,141.9714985041161 Z "/><path class="wedge" fill="rgb(225,181,165)" d=" M 269.47964320334376,141.1306539736543 L 269.92993801865043,91.10868641839949 A 214.4,214.4 0 0,1 288.6461435008972,92.09639937775097 L 283.82896736120284,141.88791288717158 A 164.3760057220572,164.3760057220572 0 0 0 269.47964320334376,141.1306539736543 Z "/><path class="wedge" fill="rgb(225,182,165)" d=" M 283.82896736120284,141.88791288717158 L 288.6461435008972,92.09639937775097 A 214.4,214.4 0 0,1 302.3154192597281,93.863963368643 L 294.30891582365604,143.24306731198953 A 164.3760057220572,164.3760057220572 0 0 0 283.82896736120284,141.88791288717158 Z "/><path class="wedge" fill="url(#hiddenPattern)" d=" M 283.82896736120284,141.88791288717158 L 288.6461435008972,92.09639937775097 A 214.4,214.4 0 0,1 302.3154192597281,93.863963368643 L 294.30891582365604,143.24306731198953 A 164.3760057220572,164.3760057220572 0 0 0 283.82896736120284,141.88791288717158 Z "/><path class="wedge" fill="rgb(216,162,140)" d=" M 290.9762406490661,163.79692270835022 L 302.3154192597281,93.863963368643 A 214.4,214.4 0 0,1 329.1726095330005,100.01211266129806 L 308.95874764412565,167.913479076939 A 143.5537172917757,143.5537172917757 0 0 0 290.9762406490661,163.79692270835022 Z "/><path class="wedge" fill="url(#hiddenPattern)" d=" M 290.9762406490661,163.79692270835022 L 302.3154192597281,93.863963368643 A 214.4,214.4 0 0,1 329.1726095330005,100.01211266129806 L 308.95874764412565,167.913479076939 A 143.5537172917757,143.5537172917757 0 0 0 290.9762406490661,163.79692270835022 Z "/><path class="wedge" fill="rgb(212,152,127)" d=" M 301.945706530113,191.47132650799384 L 329.1726095330005,100.01211266129806 A 214.4,214.4 0 0,1 346.37188889383805,105.93746085196273 L 311.48987497689893,194.75940155178495 A 118.97415421079953,118.97415421079953 0 0 0 301.945706530113,191.47132650799384 Z "/><path class="wedge" fill="url(#hiddenPattern)" d=" M 301.945706530113,191.47132650799384 L 329.1726095330005,100.01211266129806 A 214.4,214.4 0 0,1 346.37188889383805,105.93746085196273 L 311.48987497689893,194.75940155178495 A 118.97415421079953,118.97415421079953 0 0 0 301.945706530113,191.47132650799384 Z "/><path class="wedge" fill="rgb(212,153,127)" d=" M 311.48987497689893,194.75940155178495 L 346.37188889383805,105.93746085196273 A 214.4,214.4 0 0,1 360.5275558176949,112.0936624244093 L 319.3450918591548,198.17558100716286 A 118.97415421079953,118.97415421079953 0 0 0 311.48987497689893,194.75940155178495 Z "/><path class="wedge" fill="url(#hiddenPattern)" d=" M 311.48987497689893,194.75940155178495 L 346.37188889383805,105.93746085196273 A 214.4,214.4 0 0,1 360.5275558176949,112.0936624244093 L 319.3450918591548,198.17558100716286 A 118.97415421079953,118.97415421079953 0 0 0 311.48987497689893,194.75940155178495 Z "/><path class="wedge" fill="rgb(212,154,127)" d=" M 306.63509144605564,224.74274371623835 L 360.5275558176949,112.0936624244093 A 214.4,214.4 0 0,1 417.69100835763277,152.00745289469222 L 330.5038211097263,241.40883773709845 A 89.52320779287481,89.52320779287481 0 0 0 306.63509144605564,224.74274371623835 Z "/><path class="wedge" fill="rgb(212,154,127)" d=" M 306.63509144605564,224.74274371623835 L 360.5275558176949,112.0936624244093 A 214.4,214.4 0 0,1 417.69100835763277,152.00745289469222 L 330.5038211097263,241.40883773709845 A 89.52320779287481,89.52320779287481 0 0 0 306.63509144605564,224.74274371623835 Z "/><path class="wedge" fill="rgb(212,156,127)" d=" M 330.5038211097263,241.40883773709845 L 417.69100835763277,152.00745289469222 A 214.4,214.4 0 0,1 455.93060284858416,202.30383479524178 L 346.4708507903639,262.4102064316539 A 89.52320779287481,89.52320779287481 0 0 0 330.5038211097263,241.40883773709845 Z "/><path class="wedge" fill="rgb(212,156,127)" d=" M 330.5038211097263,241.40883773709845 L 417.69100835763277,152.00745289469222 A 214.4,214.4 0 0,1 455.93060284858416,202.30383479524178 L 346.4708507903639,262.4102064316539 A 89.52320779287481,89.52320779287481 0 0 0 330.5038211097263,241.40883773709845 Z "/><path class="wedge" fill="rgb(212,159,127)" d=" M 346.4708507903639,262.4102064316539 L 455.93060284858416,202.30383479524178 A 214.4,214.4 0 0,1 473.3695071162216,243.93113167484552 L 353.7525049434971,279.79177895221574 A 89.52320779287481,89.52320779287481 0 0 0 346.4708507903639,262.4102064316539 Z "/><path class="wedge" fill="rgb(212,159,127)" d=" M 346.4708507903639,262.4102064316539 L 455.93060284858416,202.30383479524178 A 214.4,214.4 0 0,1 473.3695071162216,243.93113167484552 L 353.7525049434971,279.79177895221574 A 89.52320779287481,89.52320779287481 0 0 0 346.4708507903639,262.4102064316539 Z "/><path class="wedge" fill="rgb(212,160,127)" d=" M 353.7525049434971,279.79177895221574 L 473.3695071162216,243.93113167484552 A 214.4,214.4 0 0,1 480.88497806732136,280.05700266721493 L 356.8906069379776,294.8762185769754 A 89.52320779287481,89.52320779287481 0 0 0 353.7525049434971,279.79177895221574 Z "/><path class="wedge" fill="rgb(212,160,127)" d=" M 353.7525049434971,279.79177895221574 L 473.3695071162216,243.93113167484552 A 214.4,214.4 0 0,1 480.88497806732136,280.05700266721493 L 356.8906069379776,294.8762185769754 A 89.52320779287481,89.52320779287481 0 0 0 353.7525049434971,279.79177895221574 Z "/><path class="wedge" fill="rgb(212,161,127)" d=" M 356.8906069379776,294.8762185769754 L 480.88497806732136,280.05700266721493 A 214.4,214.4 0 0,1 482.31805983175923,311.4269916442047 L 357.4889934891994,307.97482884585247 A 89.52320779287481,89.52320779287481 0 0 0 356.8906069379776,294.8762185769754 Z "/><path class="wedge" fill="rgb(212,161,127)" d=" M 356.8906069379776,294.8762185769754 L 480.88497806732136,280.05700266721493 A 214.4,214.4 0 0,1 482.31805983175923,311.4269916442047 L 357.4889934891994,307.97482884585247 A 89.52320779287481,89.52320779287481 0 0 0 356.8906069379776,294.8762185769754 Z "/><path class="wedge" fill="rgb(208,153,114)" d=" M 357.4889934891994,307.97482884585247 L 482.31805983175923,311.4269916442047 A 214.4,214.4 0 0,1 480.785238319277,331.76408866510445 L 356.84896037925853,316.46662997694324 A 89.52320779287481,89.52320779287481 0 0 0 357.4889934891994,307.97482884585247 Z "/><path class="wedge" fill="url(#hiddenPattern)" d=" M 357.4889934891994,307.97482884585247 L 482.31805983175923,311.4269916442047 A 214.4,214.4 0 0,1 480.785238319277,331.76408866510445 L 356.84896037925853,316.46662997694324 A 89.52320779287481,89.52320779287481 0 0 0 357.4889934891994,307.97482884585247 Z "/><path class="wedge" fill="rgb(208,154,114)" d=" M 356.84896037925853,316.46662997694324 L 480.785238319277,331.76408866510445 A 214.4,214.4 0 0,1 477.44552735041634,351.32500488713555 L 355.4544564658562,324.6343350495361 A 89.52320779287481,89.52320779287481 0 0 0 356.84896037925853,316.46662997694324 Z "/><path class="wedge" fill="url(#hiddenPattern)" d=" M 356.84896037925853,316.46662997694324 L 480.785238319277,331.76408866510445 A 214.4,214.4 0 0,1 477.44552735041634,351.32500488713555 L 355.4544564658562,324.6343350495361 A 89.52320779287481,89.52320779287481 0 0 0 356.84896037925853,316.46662997694324 Z "/><path class="wedge" fill="rgb(208,158,114)" d=" M 355.4544564658562,324.6343350495361 L 477.44552735041634,351.32500488713555 A 214.4,214.4 0 0,1 402.2144170263041,472.69404972154166 L 324.04153518771164,375.31225585332936 A 89.52320779287481,89.52320779287481 0 0 0 355.4544564658562,324.6343350495361 Z "/><path class="wedge" fill="url(#hiddenPattern)" d=" M 355.4544564658562,324.6343350495361 L 477.44552735041634,351.32500488713555 A 214.4,214.4 0 0,1 402.2144170263041,472.69404972154166 L 324.04153518771164,375.31225585332936 A 89.52320779287481,89.52320779287481 0 0 0 355.4544564658562,324.6343350495361 Z "/><path class="wedge" fill="rgb(208,205,114)" d=" M 301.553604256576,347.2985124303854 L 402.2144170263041,472.69404972154166 A 214.4,214.4 0 0,1 365.2250004578623,496.58809299893255 L 292.30625011446557,353.27202324973314 A 53.6,53.6 0 0 0 301.553604256576,347.2985124303854 Z "/><path class="wedge" fill="rgb(212,210,127)" d=" M 324.04153518771164,375.31225585332936 L 402.2144170263041,472.69404972154166 A 214.4,214.4 0 0,1 374.4430046688481,491.61084535047274 L 312.4455187736345,383.2110069068002 A 89.52320779287481,89.52320779287481 0 0 0 324.04153518771164,375.31225585332936 Z "/><path class="wedge" fill="rgb(212,210,127)" d=" M 342.4778299841421,398.278781038707 L 402.2144170263041,472.69404972154166 A 214.4,214.4 0 0,1 387.55804761400395,483.4697537525058 L 334.344764897251,404.25839984985373 A 118.97415421079953,118.97415421079953 0 0 0 342.4778299841421,398.278781038707 Z "/><path class="wedge" fill="url(#hiddenPattern)" d=" M 342.4778299841421,398.278781038707 L 402.2144170263041,472.69404972154166 A 214.4,214.4 0 0,1 387.55804761400395,483.4697537525058 L 334.344764897251,404.25839984985373 A 118.97415421079953,118.97415421079953 0 0 0 342.4778299841421,398.278781038707 Z "/><path class="wedge" fill="rgb(193,212,127)" d=" M 334.344764897251,404.25839984985373 L 387.55804761400395,483.4697537525058 A 214.4,214.4 0 0,1 374.4430046688481,491.61084535047274 L 327.0670077058414,408.7760280551745 A 118.97415421079953,118.97415421079953 0 0 0 334.344764897251,404.25839984985373 Z "/><path class="wedge" fill="url(#hiddenPattern)" d=" M 334.344764897251,404.25839984985373 L 387.55804761400395,483.4697537525058 A 214.4,214.4 0 0,1 374.4430046688481,491.61084535047274 L 327.0670077058414,408.7760280551745 A 118.97415421079953,118.97415421079953 0 0 0 334.344764897251,404.25839984985373 Z "/><path class="wedge" fill="rgb(175,208,114)" d=" M 312.4455187736345,383.2110069068002 L 374.4430046688481,491.61084535047274 A 214.4,214.4 0 0,1 365.2250004578623,496.58809299893255 L 308.5965201429643,385.2892679864161 A 89.52320779287481,89.52320779287481 0 0 0 312.4455187736345,383.2110069068002 Z "/><path class="wedge" fill="url(#hiddenPattern)" d=" M 312.4455187736345,383.2110069068002 L 374.4430046688481,491.61084535047274 A 214.4,214.4 0 0,1 365.2250004578623,496.58809299893255 L 308.5965201429643,385.2892679864161 A 89.52320779287481,89.52320779287481 0 0 0 312.4455187736345,383.2110069068002 Z "/><path class="wedge" fill="rgb(125,208,114)" d=" M 292.30625011446557,353.27202324973314 L 365.2250004578623,496.58809299893255 A 214.4,214.4 0 0,1 332.5991329933196,509.93657211103744 L 284.14978324832987,356.6091430277594 A 53.6,53.6 0 0 0 292.30625011446557,353.27202324973314 Z "/><path class="wedge" fill="rgb(136,212,127)" d=" M 308.5965201429643,385.2892679864161 L 365.2250004578623,496.58809299893255 A 214.4,214.4 0 0,1 338.876886541461,507.84581032032486 L 297.59480523117173,389.9899534669966 A 89.52320779287481,89.52320779287481 0 0 0 308.5965201429643,385.2892679864161 Z "/><path class="wedge" fill="rgb(148,216,140)" d=" M 321.9517826381472,411.53798621409794 L 365.2250004578623,496.58809299893255 A 214.4,214.4 0 0,1 347.1411902335101,504.75870622992454 L 311.91677318688363,416.0719964684862 A 118.97415421079953,118.97415421079953 0 0 0 321.9517826381472,411.53798621409794 Z "/><path class="wedge" fill="rgb(148,216,140)" d=" M 321.9517826381472,411.53798621409794 L 365.2250004578623,496.58809299893255 A 214.4,214.4 0 0,1 347.1411902335101,504.75870622992454 L 311.91677318688363,416.0719964684862 A 118.97415421079953,118.97415421079953 0 0 0 321.9517826381472,411.53798621409794 Z "/><path class="wedge" fill="url(#hiddenPattern)" d=" M 321.9517826381472,411.53798621409794 L 365.2250004578623,496.58809299893255 A 214.4,214.4 0 0,1 347.1411902335101,504.75870622992454 L 311.91677318688363,416.0719964684862 A 118.97415421079953,118.97415421079953 0 0 0 321.9517826381472,411.53798621409794 Z "/><path class="wedge" fill="rgb(127,212,140)" d=" M 311.91677318688363,416.0719964684862 L 347.1411902335101,504.75870622992454 A 214.4,214.4 0 0,1 338.876886541461,507.84581032032486 L 307.33077252502386,417.78508228059474 A 118.97415421079953,118.97415421079953 0 0 0 311.91677318688363,416.0719964684862 Z "/><path class="wedge" fill="url(#hiddenPattern)" d=" M 311.91677318688363,416.0719964684862 L 347.1411902335101,504.75870622992454 A 214.4,214.4 0 0,1 338.876886541461,507.84581032032486 L 307.33077252502386,417.78508228059474 A 118.97415421079953,118.97415421079953 0 0 0 311.91677318688363,416.0719964684862 Z "/><path class="wedge" fill="rgb(114,208,140)" d=" M 297.59480523117173,389.9899534669966 L 338.876886541461,507.84581032032486 A 214.4,214.4 0 0,1 332.5991329933196,509.93657211103744 L 294.97351495429336,390.8629558095123 A 89.52320779287481,89.52320779287481 0 0 0 297.59480523117173,389.9899534669966 Z "/><path class="wedge" fill="url(#hiddenPattern)" d=" M 297.59480523117173,389.9899534669966 L 338.876886541461,507.84581032032486 A 214.4,214.4 0 0,1 332.5991329933196,509.93657211103744 L 294.97351495429336,390.8629558095123 A 89.52320779287481,89.52320779287481 0 0 0 297.59480523117173,389.9899534669966 Z "/><path class="wedge" fill="rgb(114,208,184)" d=" M 284.14978324832987,356.6091430277594 L 332.5991329933196,509.93657211103744 A 214.4,214.4 0 0,1 302.5875456282676,517.0917335044365 L 276.6468864070669,358.39793337610917 A 53.6,53.6 0 0 0 284.14978324832987,356.6091430277594 Z "/><path class="wedge" fill="rgb(114,208,184)" d=" M 284.14978324832987,356.6091430277594 L 332.5991329933196,509.93657211103744 A 214.4,214.4 0 0,1 302.5875456282676,517.0917335044365 L 276.6468864070669,358.39793337610917 A 53.6,53.6 0 0 0 284.14978324832987,356.6091430277594 Z "/><path class="wedge" fill="rgb(114,208,184)" d=" M 284.14978324832987,356.6091430277594 L 332.5991329933196,509.93657211103744 A 214.4,214.4 0 0,1 302.5875456282676,517.0917335044365 L 276.6468864070669,358.39793337610917 A 53.6,53.6 0 0 0 284.14978324832987,356.6091430277594 Z "/><path class="wedge" fill="rgb(114,208,184)" d=" M 284.14978324832987,356.6091430277594 L 332.5991329933196,509.93657211103744 A 214.4,214.4 0 0,1 302.5875456282676,517.0917335044365 L 276.6468864070669,358.39793337610917 A 53.6,53.6 0 0 0 284.14978324832987,356.6091430277594 Z "/><path class="wedge" fill="url(#hiddenPattern)" d=" M 284.14978324832987,356.6091430277594 L 332.5991329933196,509.93657211103744 A 214.4,214.4 0 0,1 302.5875456282676,517.0917335044365 L 276.6468864070669,358.39793337610917 A 53.6,53.6 0 0 0 284.14978324832987,356.6091430277594 Z "/><path class="wedge" fill="rgb(114,157,208)" d=" M 276.6468864070669,358.39793337610917 L 302.5875456282676,517.0917335044365 A 214.4,214.4 0 0,1 291.1145560706026,518.6503631187594 L 273.7786390176506,358.7875907796898 A 53.6,53.6 0 0 0 276.6468864070669,358.39793337610917 Z "/><path class="wedge" fill="rgb(114,157,208)" d=" M 276.6468864070669,358.39793337610917 L 302.5875456282676,517.0917335044365 A 214.4,214.4 0 0,1 291.1145560706026,518.6503631187594 L 273.7786390176506,358.7875907796898 A 53.6,53.6 0 0 0 276.6468864070669,358.39793337610917 Z "/><path class="wedge" fill="rgb(114,157,208)" d=" M 276.6468864070669,358.39793337610917 L 302.5875456282676,517.0917335044365 A 214.4,214.4 0 0,1 291.1145560706026,518.6503631187594 L 273.7786390176506,358.7875907796898 A 53.6,53.6 0 0 0 276.6468864070669,358.39793337610917 Z "/><path class="wedge" fill="rgb(114,157,208)" d=" M 276.6468864070669,358.39793337610917 L 302.5875456282676,517.0917335044365 A 214.4,214.4 0 0,1 291.1145560706026,518.6503631187594 L 273.7786390176506,358.7875907796898 A 53.6,53.6 0 0 0 276.6468864070669,358.39793337610917 Z "/><path class="wedge" fill="rgb(114,157,208)" d=" M 276.6468864070669,358.39793337610917 L 302.5875456282676,517.0917335044365 A 214.4,214.4 0 0,1 291.1145560706026,518.6503631187594 L 273.7786390176506,358.7875907796898 A 53.6,53.6 0 0 0 276.6468864070669,358.39793337610917 Z "/><path class="wedge" fill="rgb(114,157,208)" d=" M 276.6468864070669,358.39793337610917 L 302.5875456282676,517.0917335044365 A 214.4,214.4 0 0,1 291.1145560706026,518.6503631187594 L 273.7786390176506,358.7875907796898 A 53.6,53.6 0 0 0 276.6468864070669,358.39793337610917 Z "/><rect fill="rgb(114,157,208)" x="653.96" y="482.96" width="24" height="24"/><path class="line" d="M 296.8615742239634,517.948510310886 L 301.1908103575579,549.815786857519 A 246.56000000000003,246.56000000000003 0 0,0 425.78701467484586,494.96 L 437.84085937500004,494.96"/><text x="645.96" y="494.96" style="font-color:black;font-weight:normal" text-anchor="end">s__Ichtadenovirus_acipenseris&#160;&#160;&#160;0.9%</text><path class="wedge" fill="rgb(138,114,208)" d=" M 273.7786390176506,358.7875907796898 L 291.1145560706026,518.6503631187594 A 214.4,214.4 0 0,1 283.4263711767847,519.3443056812972 L 271.85659279419616,358.9610764203243 A 53.6,53.6 0 0 0 273.7786390176506,358.7875907796898 Z "/><path class="wedge" fill="rgb(138,114,208)" d=" M 273.7786390176506,358.7875907796898 L 291.1145560706026,518.6503631187594 A 214.4,214.4 0 0,1 283.4263711767847,519.3443056812972 L 271.85659279419616,358.9610764203243 A 53.6,53.6 0 0 0 273.7786390176506,358.7875907796898 Z "/><path class="wedge" fill="rgb(138,114,208)" d=" M 273.7786390176506,358.7875907796898 L 291.1145560706026,518.6503631187594 A 214.4,214.4 0 0,1 283.4263711767847,519.3443056812972 L 271.85659279419616,358.9610764203243 A 53.6,53.6 0 0 0 273.7786390176506,358.7875907796898 Z "/><path class="wedge" fill="rgb(138,114,208)" d=" M 273.7786390176506,358.7875907796898 L 291.1145560706026,518.6503631187594 A 214.4,214.4 0 0,1 283.4263711767847,519.3443056812972 L 271.85659279419616,358.9610764203243 A 53.6,53.6 0 0 0 273.7786390176506,358.7875907796898 Z "/><path class="wedge" fill="rgb(138,114,208)" d=" M 273.7786390176506,358.7875907796898 L 291.1145560706026,518.6503631187594 A 214.4,214.4 0 0,1 283.4263711767847,519.3443056812972 L 271.85659279419616,358.9610764203243 A 53.6,53.6 0 0 0 273.7786390176506,358.7875907796898 Z "/><path class="wedge" fill="rgb(138,114,208)" d=" M 273.7786390176506,358.7875907796898 L 291.1145560706026,518.6503631187594 A 214.4,214.4 0 0,1 283.4263711767847,519.3443056812972 L 271.85659279419616,358.9610764203243 A 53.6,53.6 0 0 0 273.7786390176506,358.7875907796898 Z "/><rect fill="rgb(138,114,208)" x="653.96" y="514.96" width="24" height="24"/><path class="line" d="M 287.273587038798,519.0319386945613 L 290.64646477058767,556.4000279661095 A 251.92000000000002,251.92000000000002 0 0,0 388.07978514304557,526.96 L 410.50687500000004,526.96"/><text x="645.96" y="526.96" style="font-color:black;font-weight:normal" text-anchor="end">s__Chaphamaparvovirus_galliform3&#160;&#160;&#160;0.6%</text><path class="wedge" fill="rgb(197,114,208)" d=" M 271.85659279419616,358.9610764203243 L 283.4263711767847,519.3443056812972 A 214.4,214.4 0 0,1 275.71818832142264,519.7610313823657 L 269.92954708035563,359.0652578455914 A 53.6,53.6 0 0 0 271.85659279419616,358.9610764203243 Z "/><path class="wedge" fill="rgb(197,114,208)" d=" M 271.85659279419616,358.9610764203243 L 283.4263711767847,519.3443056812972 A 214.4,214.4 0 0,1 275.71818832142264,519.7610313823657 L 269.92954708035563,359.0652578455914 A 53.6,53.6 0 0 0 271.85659279419616,358.9610764203243 Z "/><path class="wedge" fill="rgb(197,114,208)" d=" M 271.85659279419616,358.9610764203243 L 283.4263711767847,519.3443056812972 A 214.4,214.4 0 0,1 275.71818832142264,519.7610313823657 L 269.92954708035563,359.0652578455914 A 53.6,53.6 0 0 0 271.85659279419616,358.9610764203243 Z "/><path class="wedge" fill="rgb(197,114,208)" d=" M 271.85659279419616,358.9610764203243 L 283.4263711767847,519.3443056812972 A 214.4,214.4 0 0,1 275.71818832142264,519.7610313823657 L 269.92954708035563,359.0652578455914 A 53.6,53.6 0 0 0 271.85659279419616,358.9610764203243 Z "/><path class="wedge" fill="rgb(197,114,208)" d=" M 271.85659279419616,358.9610764203243 L 283.4263711767847,519.3443056812972 A 214.4,214.4 0 0,1 275.71818832142264,519.7610313823657 L 269.92954708035563,359.0652578455914 A 53.6,53.6 0 0 0 271.85659279419616,358.9610764203243 Z "/><path class="wedge" fill="rgb(197,114,208)" d=" M 271.85659279419616,358.9610764203243 L 283.4263711767847,519.3443056812972 A 214.4,214.4 0 0,1 275.71818832142264,519.7610313823657 L 269.92954708035563,359.0652578455914 A 53.6,53.6 0 0 0 271.85659279419616,358.9610764203243 Z "/><rect fill="rgb(197,114,208)" x="653.96" y="546.96" width="24" height="24"/><path class="line" d="M 279.5741554192519,519.5873628366023 L 281.8889865031023,562.4048354039228 A 257.28000000000003,257.28000000000003 0 0,0 312.17042902214104,558.96 L 398.50687500000004,558.96 L 454.54593750000004,558.96"/><text x="645.96" y="558.96" style="font-color:black;font-weight:normal" text-anchor="end">s__Giliycovirus_geovicinum&#160;&#160;&#160;0.6%</text><path class="wedge" fill="rgb(208,114,171)" d=" M 269.92954708035563,359.0652578455914 L 275.71818832142264,519.7610313823657 A 214.4,214.4 0 0,1 268.00000000000006,519.9 L 268,359.1 A 53.6,53.6 0 0 0 269.92954708035563,359.0652578455914 Z "/><path class="wedge" fill="rgb(208,114,171)" d=" M 269.92954708035563,359.0652578455914 L 275.71818832142264,519.7610313823657 A 214.4,214.4 0 0,1 268.00000000000006,519.9 L 268,359.1 A 53.6,53.6 0 0 0 269.92954708035563,359.0652578455914 Z "/><path class="wedge" fill="rgb(208,114,171)" d=" M 269.92954708035563,359.0652578455914 L 275.71818832142264,519.7610313823657 A 214.4,214.4 0 0,1 268.00000000000006,519.9 L 268,359.1 A 53.6,53.6 0 0 0 269.92954708035563,359.0652578455914 Z "/><path class="wedge" fill="rgb(208,114,171)" d=" M 269.92954708035563,359.0652578455914 L 275.71818832142264,519.7610313823657 A 214.4,214.4 0 0,1 268.00000000000006,519.9 L 268,359.1 A 53.6,53.6 0 0 0 269.92954708035563,359.0652578455914 Z "/><path class="wedge" fill="rgb(208,114,171)" d=" M 269.92954708035563,359.0652578455914 L 275.71818832142264,519.7610313823657 A 214.4,214.4 0 0,1 268.00000000000006,519.9 L 268,359.1 A 53.6,53.6 0 0 0 269.92954708035563,359.0652578455914 Z "/><rect fill="rgb(208,114,171)" x="653.96" y="578.96" width="24" height="24"/><path class="line" d="M 271.85971965438006,519.8652550302628 L 273.13980482697065,590.96 L 386.50687500000004,590.96 L 429.83109375000004,590.96"/><text x="645.96" y="590.96" style="font-color:black;font-weight:normal" text-anchor="end">s__Betabaculovirus_maphaseoli&#160;&#160;&#160;0.6%</text><circle cx="268" cy="305.5" r="53.6"/><circle cx="268" cy="305.5" r="214.4"/><text x="268" y="305.5" text-anchor="middle" style="font-color:black;font-weight:bold" transform="rotate(360,268,305.5)">all</text><line x1="402.2144170263041" y1="472.69404972154166" x2="301.553604256576" y2="347.2985124303854"/><path class="line" d=" M 301.553604256576,347.2985124303854 A 53.6,53.6 0 1 0 268,359.1"/><text x="268" y="241.12303766213756" text-anchor="middle" style="font-color:black;font-weight:normal" transform="rotate(340.6221858370855,268,305.5)">c__Caudoviricetes</text><path class="line" d=" M 306.63509144605564,224.74274371623835 A 89.52320779287481,89.52320779287481 0 1 0 268,395.0232077928748"/><line x1="360.5275558176949" y1="112.0936624244093" x2="306.63509144605564" y2="224.74274371623835"/><text x="268" y="207.14150828174775" text-anchor="middle" style="font-color:black;font-weight:normal" transform="rotate(282.78346295538273,268,305.5)">o__Crassvirales</text><path class="line" d=" M 301.945706530113,191.47132650799384 A 118.97415421079953,118.97415421079953 0 1 0 268,424.4741542107995"/><line x1="329.1726095330005" y1="100.01211266129806" x2="301.945706530113" y2="191.47132650799384"/><text x="268" y="174.23606424871238" text-anchor="middle" style="font-color:black;font-weight:normal" transform="rotate(278.2889889480148,268,305.5)">f__Suoliviridae</text><path class="line" d=" M 189.95185165461683,185.01698755366328 A 143.5537172917757,143.5537172917757 0 0 0 268,449.0537172917757"/><line x1="151.4337186041728" y1="125.55650319739578" x2="189.95185165461683" y2="185.01698755366328"/><text x="268" y="459.46486150691646" text-anchor="middle" style="font-color:black;font-weight:normal" transform="rotate(73.53254195661073,268,305.5)">g__Aurodevirus</text><path class="line" d=" M 160.0736937927593,181.51861556830923 A 164.3760057220572,164.3760057220572 0 0 0 268,469.8760057220572"/><line x1="127.22884578447088" y1="143.7877798655039" x2="160.0736937927593" y2="181.51861556830923"/><text x="78.61199713897142" y="305.5" text-anchor="end" style="font-color:black;font-weight:normal" transform="rotate(-20.51985264019647,268,305.5)">s__Aurodevirus_hiberniae&#160;&#160;&#160;39%</text><path class="line" d=" M 173.0312283160016,171.33441699910384 A 164.3760057220572,164.3760057220572 0 0 0 160.0736937927593,181.51861556830923"/><line x1="144.12970299644513" y1="130.50425856538365" x2="173.0312283160016" y2="171.33441699910384"/><text x="78.61199713897142" y="305.5" text-anchor="end" style="font-color:black;font-weight:normal" transform="rotate(51.83381088825216,268,305.5)">s__Aurodevirus_hominis&#160;&#160;&#160;2%</text><path class="line" d=" M 178.63106465615942,167.54107621235144 A 164.3760057220572,164.3760057220572 0 0 0 173.0312283160016,171.33441699910384"/><path class="line" d=" M 290.9762406490661,163.79692270835022 A 143.5537172917757,143.5537172917757 0 0 0 189.95185165461683,185.01698755366328"/><line x1="302.3154192597281" y1="93.863963368643" x2="290.9762406490661" y2="163.79692270835022"/><text x="268" y="151.53513849308354" text-anchor="middle" style="font-color:black;font-weight:normal" transform="rotate(348.137535816619,268,305.5)">g__Buchavirus</text><path class="line" d=" M 228.85172524313904,145.8538793434081 A 164.3760057220572,164.3760057220572 0 0 0 178.63106465615942,167.54107621235144"/><line x1="216.93786309625173" y1="97.26931500179214" x2="228.85172524313904" y2="145.8538793434081"/><text x="78.61199713897142" y="305.5" text-anchor="end" style="font-color:black;font-weight:normal" transform="rotate(66.64347114203852,268,305.5)">s__Buchavirus_hiberniae&#160;&#160;&#160;5%</text><path class="line" d=" M 251.32965340346897,141.9714985041161 A 164.3760057220572,164.3760057220572 0 0 0 228.85172524313904,145.8538793434081"/><line x1="246.25642316470615" y1="92.20542232300497" x2="251.32965340346897" y2="141.9714985041161"/><text x="78.61199713897142" y="305.5" text-anchor="end" style="font-color:black;font-weight:normal" transform="rotate(80.20057306590262,268,305.5)">s__Buchavirus_splanchnicus&#160;&#160;&#160;2%</text><path class="line" d=" M 269.47964320334376,141.1306539736543 A 164.3760057220572,164.3760057220572 0 0 0 251.32965340346897,141.9714985041161"/><line x1="269.92993801865043" y1="91.10868641839949" x2="269.47964320334376" y2="141.1306539736543"/><text x="78.61199713897142" y="305.5" text-anchor="end" style="font-color:black;font-weight:normal" transform="rotate(87.34752353663532,268,305.5)">s__Buchavirus_oralis&#160;&#160;&#160;2%</text><path class="line" d=" M 283.82896736120284,141.88791288717158 A 164.3760057220572,164.3760057220572 0 0 0 269.47964320334376,141.1306539736543"/><line x1="288.6461435008972" y1="92.09639937775097" x2="283.82896736120284" y2="141.88791288717158"/><text x="457.38800286102855" y="305.5" text-anchor="start" style="font-color:black;font-weight:normal" transform="rotate(273.0208759721654,268,305.5)">1%&#160;&#160;&#160;s__Buchavirus_coli</text><path class="line" d=" M 294.30891582365604,143.24306731198953 A 164.3760057220572,164.3760057220572 0 0 0 283.82896736120284,141.88791288717158"/><line x1="473.4" y1="305.5" x2="491.4" y2="305.5" class="tick" transform="rotate(282.8939828080229,268,305.5)"/><text x="494.4" y="305.5" text-anchor="start" style="font-color:black;font-weight:normal" transform="rotate(282.8939828080229,268,305.5)">3 more</text><path class="line" d=" M 308.95874764412565,167.913479076939 A 143.5537172917757,143.5537172917757 0 0 0 290.9762406490661,163.79692270835022"/><path class="line" d=" M 311.48987497689893,194.75940155178495 A 118.97415421079953,118.97415421079953 0 0 0 301.945706530113,191.47132650799384"/><line x1="346.37188889383805" y1="105.93746085196273" x2="311.48987497689893" y2="194.75940155178495"/><text x="434.6870771053998" y="305.5" text-anchor="start" style="font-color:black;font-weight:normal" transform="rotate(289.0094146541138,268,305.5)">1%&#160;&#160;&#160;f__Intestiviridae</text><line x1="473.4" y1="305.5" x2="491.4" y2="305.5" class="tick" transform="rotate(293.50388866148177,268,305.5)"/><text x="494.4" y="305.5" text-anchor="start" style="font-color:black;font-weight:normal" transform="rotate(293.50388866148177,268,305.5)">1 more</text><path class="line" d=" M 319.3450918591548,198.17558100716286 A 118.97415421079953,118.97415421079953 0 0 0 311.48987497689893,194.75940155178495"/><line x1="417.69100835763277" y1="152.00745289469222" x2="330.5038211097263" y2="241.40883773709845"/><path class="line" d=" M 330.5038211097263,241.40883773709845 A 89.52320779287481,89.52320779287481 0 0 0 306.63509144605564,224.74274371623835"/><text x="419.9616038964374" y="305.5" text-anchor="start" style="font-color:black;font-weight:normal" transform="rotate(304.92427343430205,268,305.5)">5%&#160;&#160;&#160;s__Toutatisvirus_toutatis</text><line x1="455.93060284858416" y1="202.30383479524178" x2="346.4708507903639" y2="262.4102064316539"/><path class="line" d=" M 346.4708507903639,262.4102064316539 A 89.52320779287481,89.52320779287481 0 0 0 330.5038211097263,241.40883773709845"/><text x="419.9616038964374" y="305.5" text-anchor="start" style="font-color:black;font-weight:normal" transform="rotate(322.75480966025384,268,305.5)">5%&#160;&#160;&#160;s__Eponavirus_epona</text><line x1="473.3695071162216" y1="243.93113167484552" x2="353.7525049434971" y2="279.79177895221574"/><path class="line" d=" M 353.7525049434971,279.79177895221574 A 89.52320779287481,89.52320779287481 0 0 0 346.4708507903639,262.4102064316539"/><text x="419.9616038964374" y="305.5" text-anchor="start" style="font-color:black;font-weight:normal" transform="rotate(337.2697503069996,268,305.5)">3%&#160;&#160;&#160;s__Brigitvirus_brigit</text><line x1="480.88497806732136" y1="280.05700266721493" x2="356.8906069379776" y2="294.8762185769754"/><path class="line" d=" M 356.8906069379776,294.8762185769754 A 89.52320779287481,89.52320779287481 0 0 0 353.7525049434971,279.79177895221574"/><text x="419.9616038964374" y="305.5" text-anchor="start" style="font-color:black;font-weight:normal" transform="rotate(348.2480556692591,268,305.5)">3%&#160;&#160;&#160;s__Taranisvirus_taranis</text><line x1="482.31805983175923" y1="311.4269916442047" x2="357.4889934891994" y2="307.97482884585247"/><path class="line" d=" M 357.4889934891994,307.97482884585247 A 89.52320779287481,89.52320779287481 0 0 0 356.8906069379776,294.8762185769754"/><text x="419.9616038964374" y="305.5" text-anchor="start" style="font-color:black;font-weight:normal" transform="rotate(357.3843634875153,268,305.5)">2%&#160;&#160;&#160;s__Mushuvirus_mushu</text><path class="line" d=" M 356.84896037925853,316.46662997694324 A 89.52320779287481,89.52320779287481 0 0 0 357.4889934891994,307.97482884585247"/><line x1="480.785238319277" y1="331.76408866510445" x2="356.84896037925853" y2="316.46662997694324"/><text x="419.9616038964374" y="305.5" text-anchor="start" style="font-color:black;font-weight:normal" transform="rotate(364.31027425296764,268,305.5)">2%&#160;&#160;&#160;o__Pantevenvirales</text><path class="line" d=" M 355.4544564658562,324.6343350495361 A 89.52320779287481,89.52320779287481 0 0 0 356.84896037925853,316.46662997694324"/><line x1="477.44552735041634" y1="351.32500488713555" x2="355.4544564658562" y2="324.6343350495361"/><text x="419.9616038964374" y="305.5" text-anchor="start" style="font-color:black;font-weight:normal" transform="rotate(369.6889070814573,268,305.5)">1%&#160;&#160;&#160;f__Chimalliviridae</text><line x1="473.4" y1="305.5" x2="491.4" y2="305.5" class="tick" transform="rotate(391.79287760949654,268,305.5)"/><text x="494.4" y="305.5" text-anchor="start" style="font-color:black;font-weight:normal" transform="rotate(391.79287760949654,268,305.5)">18 more</text><path class="line" d=" M 324.04153518771164,375.31225585332936 A 89.52320779287481,89.52320779287481 0 0 0 355.4544564658562,324.6343350495361"/><path class="line" d=" M 292.30625011446557,353.27202324973314 A 53.6,53.6 0 0 0 301.553604256576,347.2985124303854"/><line x1="365.2250004578623" y1="496.58809299893255" x2="292.30625011446557" y2="353.27202324973314"/><text x="268" y="384.2462454550124" text-anchor="middle" style="font-color:black;font-weight:normal" transform="rotate(327.1387638149816,268,305.5)">p__Nucleocytoviricota</text><path class="line" d=" M 312.4455187736345,383.2110069068002 A 89.52320779287481,89.52320779287481 0 0 0 324.04153518771164,375.31225585332936"/><line x1="374.4430046688481" y1="491.61084535047274" x2="312.4455187736345" y2="383.2110069068002"/><text x="268" y="415.6388702854221" text-anchor="middle" style="font-color:black;font-weight:normal" transform="rotate(325.7388456815391,268,305.5)">c__Megaviricetes</text><path class="line" d=" M 334.344764897251,404.25839984985373 A 118.97415421079953,118.97415421079953 0 0 0 342.4778299841421,398.278781038707"/><line x1="387.55804761400395" y1="483.4697537525058" x2="334.344764897251" y2="404.25839984985373"/><text x="434.6870771053998" y="305.5" text-anchor="start" style="font-color:black;font-weight:normal" transform="rotate(413.6758084322554,268,305.5)">1%&#160;&#160;&#160;o__Pimascovirales</text><line x1="473.4" y1="305.5" x2="491.4" y2="305.5" class="tick" transform="rotate(418.17028243962346,268,305.5)"/><text x="494.4" y="305.5" text-anchor="start" style="font-color:black;font-weight:normal" transform="rotate(418.17028243962346,268,305.5)">2 more</text><path class="line" d=" M 327.0670077058414,408.7760280551745 A 118.97415421079953,118.97415421079953 0 0 0 334.344764897251,404.25839984985373"/><path class="line" d=" M 308.5965201429643,385.2892679864161 A 89.52320779287481,89.52320779287481 0 0 0 312.4455187736345,383.2110069068002"/><path class="line" d=" M 284.14978324832987,356.6091430277594 A 53.6,53.6 0 0 0 292.30625011446557,353.27202324973314"/><line x1="332.5991329933196" y1="509.93657211103744" x2="284.14978324832987" y2="356.6091430277594"/><text x="268" y="369.87696233786244" text-anchor="middle" style="font-color:black;font-weight:normal" transform="rotate(337.7486696684404,268,305.5)">p__Pi...icota</text><path class="line" d=" M 297.59480523117173,389.9899534669966 A 89.52320779287481,89.52320779287481 0 0 0 308.5965201429643,385.2892679864161"/><line x1="338.876886541461" y1="507.84581032032486" x2="297.59480523117173" y2="389.9899534669966"/><text x="268" y="403.85849171825225" text-anchor="middle" style="font-color:black;font-weight:normal" transform="rotate(336.8645108473189,268,305.5)">c__P...etes</text><line x1="347.1411902335101" y1="504.75870622992454" x2="311.91677318688363" y2="416.0719964684862"/><path class="line" d=" M 311.91677318688363,416.0719964684862 A 118.97415421079953,118.97415421079953 0 0 0 321.9517826381472,411.53798621409794"/><text x="434.6870771053998" y="305.5" text-anchor="start" style="font-color:black;font-weight:normal" transform="rotate(425.6856324191567,268,305.5)">1%&#160;&#160;&#160;f__Coronaviridae</text><path class="line" d=" M 307.33077252502386,417.78508228059474 A 118.97415421079953,118.97415421079953 0 0 0 311.91677318688363,416.0719964684862"/><path class="line" d=" M 294.97351495429336,390.8629558095123 A 89.52320779287481,89.52320779287481 0 0 0 297.59480523117173,389.9899534669966"/><line x1="302.5875456282676" y1="517.0917335044365" x2="276.6468864070669" y2="358.39793337610917"/><path class="line" d=" M 276.6468864070669,358.39793337610917 A 53.6,53.6 0 0 0 284.14978324832987,356.6091430277594"/><text x="402" y="305.5" text-anchor="start" style="font-color:black;font-weight:normal" transform="rotate(436.5902578796562,268,305.5)">2%&#160;&#160;&#160;f__Orthoherpesviridae</text><line x1="291.1145560706026" y1="518.6503631187594" x2="273.7786390176506" y2="358.7875907796898"/><path class="line" d=" M 273.7786390176506,358.7875907796898 A 53.6,53.6 0 0 0 276.6468864070669,358.39793337610917"/><line x1="283.4263711767847" y1="519.3443056812972" x2="271.85659279419616" y2="358.9610764203243"/><path class="line" d=" M 271.85659279419616,358.9610764203243 A 53.6,53.6 0 0 0 273.7786390176506,358.7875907796898"/><line x1="275.71818832142264" y1="519.7610313823657" x2="269.92954708035563" y2="359.0652578455914"/><path class="line" d=" M 269.92954708035563,359.0652578455914 A 53.6,53.6 0 0 0 271.85659279419616,358.9610764203243"/><line x1="268.00000000000006" y1="519.9" x2="268" y2="359.1"/><path class="line" d=" M 268,359.1 A 53.6,53.6 0 0 0 269.92954708035563,359.0652578455914"/></svg>